REM MD5 ce28115354d23493da21243716abebf9
FILE "From TV Animation One Piece - Grand Battle! (Japan).bin" BINARY
  TRACK 01 MODE2/2352
    INDEX 01 00:00:00
  TRACK 02 AUDIO
    INDEX 00 53:30:59
    INDEX 01 53:32:59
  TRACK 03 AUDIO
    INDEX 00 53:43:63
    INDEX 01 53:45:63
REM LEADOUT 55:01:62
